<svg width="24" height="24" viewBox="0 0 24 24" fill="none" xmlns="http://www.w3.org/2000/svg">
<path d="M4.318 19.682C3 18.364 3 16.242 3 12C3 7.758 3 5.636 4.318 4.318C5.636 3 7.758 3 12 3C16.242 3 18.364 3 19.682 4.318C21 5.636 21 7.758 21 12C21 16.242 21 18.364 19.682 19.682C18.364 21 16.242 21 12 21C7.758 21 5.636 21 4.318 19.682Z" stroke="#BEBEBE" stroke-width="1.5" stroke-linecap="round" stroke-linejoin="round"/>
<path d="M6 12H8.5L10.5 8L13.5 16L15.5 12H18" stroke="#BEBEBE" stroke-width="1.5" stroke-linecap="round" stroke-linejoin="round"/>
</svg>
