<svg width="24" height="24" viewBox="0 0 24 24" fill="none" xmlns="http://www.w3.org/2000/svg">
<path d="M17.397 13.0028C17.641 11.6948 19.192 11.0288 20.333 11.0928C20.769 11.1178 21.153 11.2468 21.372 11.5028C21.462 11.4128 21.552 11.3108 21.641 11.2208C21.692 11.1698 21.846 11.1828 21.987 11.2078C22.141 11.2338 22.307 11.2978 22.41 11.2978C22.513 11.2978 22.77 11.2208 23.013 11.1828C23.256 11.1448 23.474 11.1568 23.436 11.2468L23.218 11.7848L22.513 13.5148C22.372 13.8618 22.923 13.7718 23.679 12.9648C23.808 13.0548 23.872 13.0668 24 13.3878C23.346 13.9518 22.73 14.3488 21.872 14.6438C21.102 14.9138 20.526 14.5288 20.346 13.8878C19.244 14.9128 17.718 14.9008 17.282 13.7468C16.564 14.1058 15.718 14.4768 15.359 14.5798C15.077 14.6568 14.833 14.7208 14.589 14.7208C14.205 14.7208 13.795 14.3748 13.923 13.8488C13.295 14.1308 12.795 14.3108 12.077 14.5538C11.307 14.8238 10.859 14.5288 10.679 13.8878C9.577 14.9128 8.051 14.9008 7.615 13.7468C7.179 13.9518 6.59 14.2598 6.038 14.4768C5.154 14.8748 4.115 14.7978 3.346 13.9898L3.603 13.5928C3.962 13.9768 4.41 13.9648 4.756 13.6438C5.128 13.3108 5.359 12.6698 5.192 12.1308C5.115 11.9008 4.859 11.7208 4.359 11.7468L4.513 11.3368C5.013 11.3238 5.41 11.2468 5.628 10.9388C5.936 10.4898 5.936 9.81081 5.282 9.82381C5.14208 9.82724 5.00363 9.85324 4.872 9.90081C4.756 10.2338 4.564 10.6308 4.397 11.0408C4.026 11.9908 3.615 13.0408 3.141 13.7208C2.577 14.5288 1.961 14.6828 1.474 14.6568C0.962 14.6178 0.564 14.4648 0 13.9648C0 13.7468 0.013 13.6568 0.064 13.3878C0.282 13.6568 0.962 13.9518 1.179 13.6308C1.667 12.9128 2.205 11.5288 2.615 10.6308C2.256 10.7468 1.91 10.9768 1.435 11.3108C1.435 11.2598 1.282 11.1308 1.282 10.9768C2.052 10.0928 3.397 9.55381 4.308 9.36181C5.705 9.06681 7.192 9.48981 7.423 10.3748C7.577 10.9648 6.885 11.5148 6.231 11.5928C6.603 11.8108 7 12.1948 7.103 12.6698C7.153 12.8998 7.141 13.1568 7.064 13.3998C7.282 13.2978 7.551 13.1698 7.718 13.0928C7.988 11.2078 10.91 10.6058 11.705 11.5028L11.975 11.2208C12.025 11.1698 12.179 11.1828 12.321 11.2078C12.474 11.2338 12.641 11.2978 12.744 11.2978C12.847 11.2978 13.103 11.2208 13.346 11.1828C13.59 11.1438 13.808 11.1568 13.769 11.2468L12.859 13.5158C12.654 14.0288 14.167 13.1178 14.256 13.0668L14.91 11.6828L14.244 11.6948L14.359 11.1308H15.103C15.231 10.9648 15.256 10.7718 15.423 10.6568C15.641 10.4898 16.141 10.5798 16.372 10.4268C16.577 10.2978 16.731 10.1058 16.91 9.79781C17.064 9.54181 17.654 9.60581 17.538 9.84881L17.026 11.1438H17.679C17.987 11.1568 17.718 11.6828 17.372 11.6828L16.833 11.6948L16.205 13.3238C16 13.8238 16.795 13.3478 17.397 13.0028ZM11.385 11.8878C11.308 11.6438 11.103 11.5798 10.91 11.5928C10.474 11.6438 10.051 12.1308 9.833 12.4648C9.487 13.0028 9.564 13.8108 10.128 13.6568C10.705 13.5028 11.488 12.2478 11.385 11.8878ZM21.051 11.8878C20.974 11.6438 20.769 11.5798 20.577 11.5928C20.141 11.6438 19.717 12.1308 19.5 12.4648C19.154 13.0028 19.23 13.8108 19.795 13.6568C20.372 13.5028 21.154 12.2478 21.051 11.8878Z" fill="black"/>
</svg>
