<svg width="18" height="24" viewBox="0 0 18 24" fill="none" xmlns="http://www.w3.org/2000/svg">
<path fill-rule="evenodd" clip-rule="evenodd" d="M10.064 1.89739C9.8521 1.87566 9.59245 1.875 9 1.875C8.40843 1.875 8.14718 1.8756 7.93378 1.89637C6.89789 1.99865 5.9295 2.4569 5.19355 3.19305C4.45753 3.92928 3.99953 4.89792 3.8976 5.93396L3.8974 5.93602C3.87566 6.1479 3.875 6.40755 3.875 7V7.625C3.875 7.90114 3.65114 8.125 3.375 8.125C3.09886 8.125 2.875 7.90114 2.875 7.625L2.875 6.96208C2.87499 6.41865 2.87498 6.1042 2.90251 5.83501C3.0273 4.56914 3.587 3.38563 4.48634 2.48604C5.38593 1.58621 6.56967 1.02611 7.8359 0.901168C8.10405 0.875041 8.41802 0.874988 8.96362 0.875001L9.03793 0.875001C9.58136 0.874986 9.8958 0.874978 10.165 0.902505C11.4309 1.0273 12.6144 1.587 13.514 2.48634C14.4138 3.38593 14.9739 4.56967 15.0988 5.8359C15.125 6.10403 15.125 6.41798 15.125 6.96353V7.625C15.125 7.90114 14.9011 8.125 14.625 8.125C14.3489 8.125 14.125 7.90114 14.125 7.625V7C14.125 6.40872 14.1244 6.14744 14.1037 5.9341C14.0014 4.89809 13.5432 3.92957 12.807 3.19355C12.0707 2.45753 11.1021 1.99953 10.066 1.8976L10.064 1.89739ZM4.625 10.875C4.90114 10.875 5.125 11.0989 5.125 11.375V13.875C5.125 14.1511 4.90114 14.375 4.625 14.375C4.34886 14.375 4.125 14.1511 4.125 13.875V11.375C4.125 11.0989 4.34886 10.875 4.625 10.875ZM13.375 10.875C13.6511 10.875 13.875 11.0989 13.875 11.375V13.875C13.875 14.1511 13.6511 14.375 13.375 14.375C13.0989 14.375 12.875 14.1511 12.875 13.875V11.375C12.875 11.0989 13.0989 10.875 13.375 10.875Z" fill="white"/>
<path fill-rule="evenodd" clip-rule="evenodd" d="M2.97252 8.20289C2.41506 8.2778 2.10823 8.41637 1.8873 8.6373C1.66637 8.85823 1.5278 9.16506 1.45289 9.72253C1.37606 10.2943 1.375 11.0503 1.375 12.125V15.125C1.375 16.9066 1.37606 18.1929 1.50788 19.173C1.63777 20.1389 1.8863 20.7322 2.3271 21.1725C2.7674 21.6133 3.36112 21.8622 4.32696 21.9921C5.30713 22.1239 6.59336 22.125 8.375 22.125H9.625C11.4066 22.125 12.6929 22.1239 13.673 21.9921C14.6389 21.8622 15.2322 21.6137 15.6725 21.1729C16.1133 20.7326 16.3622 20.1389 16.4921 19.173C16.6239 18.1929 16.625 16.9066 16.625 15.125V12.125C16.625 11.0503 16.6239 10.2943 16.5471 9.72253C16.4722 9.16506 16.3336 8.85823 16.1127 8.6373C15.8918 8.41637 15.5849 8.2778 15.0275 8.20289C14.4557 8.12606 13.6998 8.125 12.625 8.125H5.375C4.30025 8.125 3.5443 8.12606 2.97252 8.20289ZM5.338 7.125H12.662C13.6912 7.12499 14.5145 7.12498 15.1606 7.2118C15.8288 7.30158 16.382 7.49238 16.8198 7.9302C17.2576 8.36802 17.4484 8.92119 17.5382 9.58935C17.625 10.2355 17.625 11.0588 17.625 12.088V15.1635C17.625 16.8984 17.625 18.2518 17.4832 19.3063C17.3384 20.3829 17.0376 21.2226 16.3798 21.8798C15.7226 22.5376 14.8829 22.8384 13.8063 22.9832C12.7518 23.125 11.3984 23.125 9.66354 23.125H8.33646C6.60161 23.125 5.2482 23.125 4.19367 22.9832C3.11712 22.8384 2.27737 22.5376 1.6202 21.8798C0.96239 21.2226 0.661587 20.3829 0.516806 19.3063C0.374987 18.2518 0.374993 16.8984 0.375 15.1635L0.375 12.088C0.374988 11.0588 0.374978 10.2355 0.461798 9.58935C0.551579 8.92119 0.742377 8.36802 1.1802 7.9302C1.61802 7.49238 2.17119 7.30158 2.83935 7.2118C3.48548 7.12498 4.30879 7.12499 5.338 7.125Z" fill="white"/>
<path fill-rule="evenodd" clip-rule="evenodd" d="M2.97252 8.20289C2.41506 8.2778 2.10823 8.41637 1.8873 8.6373C1.66637 8.85823 1.5278 9.16506 1.45289 9.72253C1.37606 10.2943 1.375 11.0503 1.375 12.125V15.125C1.375 16.9066 1.37606 18.1929 1.50788 19.173C1.63777 20.1389 1.8863 20.7322 2.3271 21.1725C2.7674 21.6133 3.36112 21.8622 4.32696 21.9921C5.30713 22.1239 6.59336 22.125 8.375 22.125H9.625C11.4066 22.125 12.6929 22.1239 13.673 21.9921C14.6389 21.8622 15.2322 21.6137 15.6725 21.1729C16.1133 20.7326 16.3622 20.1389 16.4921 19.173C16.6239 18.1929 16.625 16.9066 16.625 15.125V12.125C16.625 11.0503 16.6239 10.2943 16.5471 9.72253C16.4722 9.16506 16.3336 8.85823 16.1127 8.6373C15.8918 8.41637 15.5849 8.2778 15.0275 8.20289C14.4557 8.12606 13.6998 8.125 12.625 8.125H5.375C4.30025 8.125 3.5443 8.12606 2.97252 8.20289ZM5.338 7.125H12.662C13.6912 7.12499 14.5145 7.12498 15.1606 7.2118C15.8288 7.30158 16.382 7.49238 16.8198 7.9302C17.2576 8.36802 17.4484 8.92119 17.5382 9.58935C17.625 10.2355 17.625 11.0588 17.625 12.088V15.1635C17.625 16.8984 17.625 18.2518 17.4832 19.3063C17.3384 20.3829 17.0376 21.2226 16.3798 21.8798C15.7226 22.5376 14.8829 22.8384 13.8063 22.9832C12.7518 23.125 11.3984 23.125 9.66354 23.125H8.33646C6.60161 23.125 5.2482 23.125 4.19367 22.9832C3.11712 22.8384 2.27737 22.5376 1.6202 21.8798C0.96239 21.2226 0.661587 20.3829 0.516806 19.3063C0.374987 18.2518 0.374993 16.8984 0.375 15.1635L0.375 12.088C0.374988 11.0588 0.374978 10.2355 0.461798 9.58935C0.551579 8.92119 0.742377 8.36802 1.1802 7.9302C1.61802 7.49238 2.17119 7.30158 2.83935 7.2118C3.48548 7.12498 4.30879 7.12499 5.338 7.125Z" fill="white"/>
</svg>
