<svg width="52" height="36" viewBox="0 0 52 36" fill="none" xmlns="http://www.w3.org/2000/svg">
<rect width="52" height="36" rx="10" fill="#BEBEBE" fill-opacity="0.1"/>
<path d="M20 26C19.1667 26 18.4583 25.7083 17.875 25.125C17.2917 24.5417 17 23.8333 17 23H15V12C15 11.45 15.196 10.9793 15.588 10.588C15.98 10.1967 16.4507 10.0007 17 10H31V14H34L37 18V23H35C35 23.8333 34.7083 24.5417 34.125 25.125C33.5417 25.7083 32.8333 26 32 26C31.1667 26 30.4583 25.7083 29.875 25.125C29.2917 24.5417 29 23.8333 29 23H23C23 23.8333 22.7083 24.5417 22.125 25.125C21.5417 25.7083 20.8333 26 20 26ZM20 24C20.2833 24 20.521 23.904 20.713 23.712C20.905 23.52 21.0007 23.2827 21 23C20.9993 22.7173 20.9033 22.48 20.712 22.288C20.5207 22.096 20.2833 22 20 22C19.7167 22 19.4793 22.096 19.288 22.288C19.0967 22.48 19.0007 22.7173 19 23C18.9993 23.2827 19.0953 23.5203 19.288 23.713C19.4807 23.9057 19.718 24.0013 20 24ZM32 24C32.2833 24 32.521 23.904 32.713 23.712C32.905 23.52 33.0007 23.2827 33 23C32.9993 22.7173 32.9033 22.48 32.712 22.288C32.5207 22.096 32.2833 22 32 22C31.7167 22 31.4793 22.096 31.288 22.288C31.0967 22.48 31.0007 22.7173 31 23C30.9993 23.2827 31.0953 23.5203 31.288 23.713C31.4807 23.9057 31.718 24.0013 32 24ZM31 19H35.25L33 16H31V19Z" fill="#0857A0"/>
</svg>
