<svg width="22" height="22" viewBox="0 0 22 22" fill="none" xmlns="http://www.w3.org/2000/svg">
<path d="M10.3125 16.5C10.3125 16.6823 10.3849 16.8572 10.5139 16.9861C10.6428 17.1151 10.8177 17.1875 11 17.1875C11.1823 17.1875 11.3572 17.1151 11.4861 16.9861C11.6151 16.8572 11.6875 16.6823 11.6875 16.5V13.75C11.6875 13.5677 11.6151 13.3928 11.4861 13.2639C11.3572 13.1349 11.1823 13.0625 11 13.0625C10.8177 13.0625 10.6428 13.1349 10.5139 13.2639C10.3849 13.3928 10.3125 13.5677 10.3125 13.75V16.5Z" fill="black"/>
<path fill-rule="evenodd" clip-rule="evenodd" d="M11 1.14575C10.351 1.14575 9.76158 1.33184 9.12083 1.64259C8.503 1.94325 7.78799 2.38692 6.89608 2.94059L5.00133 4.11667C4.15799 4.641 3.48058 5.06084 2.95991 5.45959C2.42 5.87209 2.00566 6.29375 1.70591 6.841C1.40708 7.38642 1.27324 7.96759 1.20816 8.65417C1.14583 9.31875 1.14583 10.1328 1.14583 11.153V12.6316C1.14583 14.3769 1.14583 15.7547 1.28608 16.8318C1.42908 17.9363 1.73158 18.8283 2.41358 19.5332C3.09833 20.2418 3.96916 20.5589 5.049 20.7083C6.094 20.8541 7.4305 20.8541 9.1135 20.8541H12.8865C14.5695 20.8541 15.906 20.8541 16.951 20.7083C18.0299 20.5589 18.9017 20.2418 19.5873 19.5332C20.2684 18.8283 20.5709 17.9363 20.7148 16.8318C20.8542 15.7547 20.8542 14.3769 20.8542 12.6316V11.153C20.8542 10.1328 20.8542 9.31967 20.7918 8.65417C20.7277 7.96667 20.5929 7.38642 20.2941 6.841C19.9943 6.29375 19.5791 5.873 19.0401 5.45959C18.5194 5.05992 17.8429 4.641 16.9987 4.11667L15.1039 2.94059C14.212 2.38692 13.497 1.94325 12.8782 1.64259C12.2393 1.33092 11.6499 1.14575 11 1.14575ZM7.58999 4.12859C8.52041 3.55109 9.17583 3.14592 9.72308 2.87917C10.2557 2.61975 10.6333 2.52075 11 2.52075C11.3667 2.52075 11.7443 2.61975 12.2769 2.87917C12.8251 3.145 13.4796 3.55109 14.41 4.12859L16.2433 5.26617C17.1242 5.81342 17.743 6.1975 18.205 6.55134C18.6532 6.89509 18.9108 7.17834 19.0877 7.501C19.2647 7.82458 19.3682 8.20317 19.4223 8.7825C19.4782 9.3765 19.4792 10.1254 19.4792 11.1869V12.5812C19.4792 14.387 19.4773 15.6758 19.3508 16.6539C19.2262 17.6146 18.9906 18.1719 18.5992 18.578C18.2096 18.9804 17.6797 19.2197 16.7622 19.3471C15.8217 19.4773 14.5814 19.4791 12.8333 19.4791H9.16666C7.41766 19.4791 6.17833 19.4773 5.23783 19.3471C4.32025 19.2188 3.79041 18.9804 3.40174 18.5771C3.00941 18.1719 2.77383 17.6146 2.65008 16.6539C2.52174 15.6758 2.52083 14.3879 2.52083 12.5812V11.1869C2.52083 10.1254 2.52083 9.3765 2.57766 8.7825C2.63174 8.20317 2.73533 7.82458 2.91225 7.501C3.08916 7.17834 3.34674 6.89509 3.79591 6.55134C4.25699 6.1975 4.87575 5.81342 5.75666 5.26617L7.58999 4.12859Z" fill="black"/>
</svg>
