<svg width="30" height="25" viewBox="0 0 30 25" fill="none" xmlns="http://www.w3.org/2000/svg">
<g clip-path="url(#clip0_131_939)">
<path d="M5.45392 24.8755V23.2209C5.45392 22.5865 5.09368 22.1729 4.47622 22.1729C4.16755 22.1729 3.8331 22.2832 3.60153 22.6417C3.42153 22.3383 3.16431 22.1729 2.77841 22.1729C2.52106 22.1729 2.26396 22.2556 2.05806 22.5589V22.228H1.51782V24.8755H2.05806V23.4138C2.05806 22.9451 2.28962 22.7244 2.64985 22.7244C3.00985 22.7244 3.19009 22.9726 3.19009 23.4138V24.8755H3.73032V23.4138C3.73032 22.9451 3.98743 22.7244 4.32188 22.7244C4.68212 22.7244 4.86212 22.9726 4.86212 23.4138V24.8755H5.45392ZM13.4544 22.228H12.5799V21.4283H12.0396V22.228H11.5508V22.7519H12.0395V23.9655C12.0395 24.5723 12.2711 24.9307 12.8885 24.9307C13.1201 24.9307 13.3772 24.848 13.5574 24.7377L13.403 24.2412C13.2486 24.3515 13.0686 24.3792 12.94 24.3792C12.6827 24.3792 12.5799 24.2137 12.5799 23.9378V22.7519H13.4544V22.228ZM18.0336 22.1728C17.725 22.1728 17.5192 22.3383 17.3905 22.5589V22.228H16.8503V24.8755H17.3905V23.3863C17.3905 22.9451 17.5705 22.6969 17.905 22.6969C18.0079 22.6969 18.1365 22.7245 18.2394 22.752L18.3938 22.2005C18.2909 22.1729 18.1365 22.1729 18.0336 22.1729M11.1135 22.4488C10.8561 22.2557 10.496 22.173 10.1101 22.173C9.49278 22.173 9.08122 22.5039 9.08122 23.0279C9.08122 23.4692 9.38989 23.7174 9.93013 23.8002L10.1874 23.8278C10.4704 23.8828 10.6247 23.9656 10.6247 24.1035C10.6247 24.2965 10.4189 24.4344 10.0587 24.4344C9.69845 24.4344 9.41556 24.2965 9.23544 24.1587L8.97821 24.5999C9.26122 24.8205 9.64712 24.9308 10.0329 24.9308C10.7533 24.9308 11.1649 24.5724 11.1649 24.0759C11.1649 23.6071 10.8305 23.3588 10.3159 23.2762L10.0587 23.2485C9.82712 23.2209 9.64712 23.1659 9.64712 23.0004C9.64712 22.8073 9.82712 22.697 10.1101 22.697C10.4189 22.697 10.7276 22.8348 10.8819 22.9176L11.1135 22.4488ZM25.4684 22.173C25.1596 22.173 24.9538 22.3385 24.8251 22.5591V22.2282H24.2849V24.8757H24.8251V23.3865C24.8251 22.9453 25.0052 22.697 25.3396 22.697C25.4426 22.697 25.5713 22.7246 25.6742 22.7522L25.8285 22.2007C25.7256 22.173 25.5713 22.173 25.4684 22.173ZM18.5739 23.5519C18.5739 24.3517 19.0883 24.9308 19.8859 24.9308C20.246 24.9308 20.5033 24.8481 20.7605 24.6275L20.5033 24.1587C20.2975 24.3241 20.0917 24.4068 19.8601 24.4068C19.4228 24.4068 19.1141 24.0759 19.1141 23.5519C19.1141 23.0556 19.4228 22.7245 19.8601 22.697C20.0917 22.697 20.2975 22.7797 20.5033 22.9453L20.7605 22.4764C20.5033 22.2557 20.246 22.173 19.8859 22.173C19.0883 22.173 18.5739 22.7522 18.5739 23.5519ZM23.5647 23.5519V22.2282H23.0244V22.5591C22.8443 22.311 22.5871 22.173 22.2526 22.173C21.5581 22.173 21.0178 22.7522 21.0178 23.5519C21.0178 24.3517 21.5581 24.9308 22.2526 24.9308C22.6127 24.9308 22.8701 24.793 23.0244 24.5448V24.8757H23.5647V23.5519ZM21.5837 23.5519C21.5837 23.0831 21.8667 22.697 22.3297 22.697C22.7671 22.697 23.0759 23.0556 23.0759 23.5519C23.0759 24.0208 22.7671 24.4068 22.3297 24.4068C21.8667 24.3792 21.5837 24.0208 21.5837 23.5519ZM15.1267 22.173C14.4063 22.173 13.8918 22.7245 13.8918 23.5519C13.8918 24.3793 14.4062 24.9308 15.1524 24.9308C15.5125 24.9308 15.8727 24.8205 16.1557 24.5724L15.8984 24.1587C15.6926 24.3241 15.4354 24.4344 15.1781 24.4344C14.8437 24.4344 14.5092 24.269 14.432 23.8H16.2586V23.5795C16.2844 22.7245 15.8214 22.173 15.1267 22.173ZM15.1266 22.6694C15.4609 22.6694 15.6926 22.8901 15.7439 23.3038H14.4577C14.5091 22.9453 14.7407 22.6694 15.1266 22.6694ZM28.5295 23.5519V21.1802H27.9893V22.5591C27.8092 22.311 27.552 22.173 27.2175 22.173C26.5229 22.173 25.9827 22.7522 25.9827 23.5519C25.9827 24.3517 26.5229 24.9308 27.2175 24.9308C27.5777 24.9308 27.835 24.793 27.9893 24.5448V24.8757H28.5295V23.5519ZM26.5487 23.5519C26.5487 23.0831 26.8316 22.697 27.2947 22.697C27.7321 22.697 28.0408 23.0556 28.0408 23.5519C28.0408 24.0208 27.7321 24.4068 27.2947 24.4068C26.8316 24.3792 26.5487 24.0208 26.5487 23.5519ZM8.48931 23.5519V22.2282H7.94907V22.5591C7.76896 22.311 7.51173 22.173 7.17728 22.173C6.48271 22.173 5.94247 22.7522 5.94247 23.5519C5.94247 24.3517 6.48271 24.9308 7.17728 24.9308C7.53751 24.9308 7.79474 24.793 7.94907 24.5448V24.8757H8.48931V23.5519ZM6.48271 23.5519C6.48271 23.0831 6.76571 22.697 7.22872 22.697C7.66606 22.697 7.97485 23.0556 7.97485 23.5519C7.97485 24.0208 7.66606 24.4068 7.22872 24.4068C6.76571 24.3792 6.48271 24.0208 6.48271 23.5519Z" fill="black"/>
<path d="M10.9333 2.12354H19.0369V17.733H10.9333V2.12354Z" fill="#FF5F00"/>
<path d="M11.4479 9.92827C11.4479 6.75678 12.8371 3.94372 14.9722 2.12349C13.4031 0.799749 11.4223 0 9.26133 0C4.14176 0 0 4.44007 0 9.92827C0 15.4165 4.14176 19.8565 9.26121 19.8565C11.4221 19.8565 13.403 19.0568 14.9722 17.7329C12.8371 15.9403 11.4479 13.0997 11.4479 9.92827Z" fill="#EB001B"/>
<path d="M29.9702 9.92827C29.9702 15.4163 25.8285 19.8565 20.709 19.8565C18.5481 19.8565 16.5672 19.0568 14.998 17.7329C17.1589 15.9128 18.5224 13.0997 18.5224 9.92827C18.5224 6.75678 17.1331 3.94372 14.998 2.12349C16.5671 0.799749 18.5481 0 20.709 0C25.8285 0 29.9702 4.46771 29.9702 9.92827Z" fill="#F79E1B"/>
</g>
<defs>
<clipPath id="clip0_131_939">
<rect width="30" height="25" fill="white"/>
</clipPath>
</defs>
</svg>
