<svg width="24" height="24" viewBox="0 0 24 24" fill="none" xmlns="http://www.w3.org/2000/svg">
<path d="M7.5 18C7.89782 18 8.27936 18.158 8.56066 18.4393C8.84196 18.7206 9 19.1022 9 19.5C9 19.8978 8.84196 20.2794 8.56066 20.5607C8.27936 20.842 7.89782 21 7.5 21C7.10218 21 6.72064 20.842 6.43934 20.5607C6.15804 20.2794 6 19.8978 6 19.5C6 19.1022 6.15804 18.7206 6.43934 18.4393C6.72064 18.158 7.10218 18 7.5 18ZM16.5 18C16.8978 18 17.2794 18.158 17.5607 18.4393C17.842 18.7206 18 19.1022 18 19.5C18 19.8978 17.842 20.2794 17.5607 20.5607C17.2794 20.842 16.8978 21 16.5 21C16.1022 21 15.7206 20.842 15.4393 20.5607C15.158 20.2794 15 19.8978 15 19.5C15 19.1022 15.158 18.7206 15.4393 18.4393C15.7206 18.158 16.1022 18 16.5 18Z" stroke="#0857A0" stroke-width="1.5"/>
<path d="M11 9H8M2 3L2.265 3.088C3.585 3.528 4.245 3.748 4.622 4.272C4.999 4.796 5 5.492 5 6.883V9.5C5 12.328 5 13.743 5.879 14.621C6.757 15.5 8.172 15.5 11 15.5H13M19 15.5H17" stroke="#0857A0" stroke-width="1.5" stroke-linecap="round"/>
<path d="M5 6H8M5.5 13H16.022C16.982 13 17.461 13 17.837 12.752C18.213 12.504 18.401 12.064 18.779 11.182L19.208 10.182C20.018 8.292 20.422 7.349 19.978 6.674C19.533 6 18.505 6 16.45 6H12" stroke="#0857A0" stroke-width="1.5" stroke-linecap="round"/>
</svg>
