<svg width="24" height="24" viewBox="0 0 24 24" fill="none" xmlns="http://www.w3.org/2000/svg">
<path d="M2 8.00047L11.732 3.13447C11.8152 3.09292 11.907 3.07129 12 3.07129C12.093 3.07129 12.1848 3.09292 12.268 3.13447L22 8.00047M12.502 9.13047L14.551 9.66147C14.815 9.73047 15.001 9.97047 14.992 10.2435C14.826 15.2325 12 16.0005 12 16.0005C12 16.0005 9.174 15.2325 9.008 10.2435C9.00443 10.1108 9.04616 9.98084 9.12632 9.87504C9.20648 9.76925 9.3203 9.69392 9.449 9.66147L11.499 9.13147C11.8279 9.04627 12.1731 9.04527 12.502 9.13047Z" stroke="#0857A0" stroke-width="1.5" stroke-linecap="round" stroke-linejoin="round"/>
<path d="M20 11V19C20 19.5304 19.7893 20.0391 19.4142 20.4142C19.0391 20.7893 18.5304 21 18 21H6C5.46957 21 4.96086 20.7893 4.58579 20.4142C4.21071 20.0391 4 19.5304 4 19V11" stroke="#0857A0" stroke-width="1.5" stroke-linecap="round" stroke-linejoin="round"/>
</svg>
