<svg width="24" height="24" viewBox="0 0 24 24" fill="none" xmlns="http://www.w3.org/2000/svg">
<path d="M4 17.9998V7.09983L2.45 3.74983C2.33334 3.49983 2.325 3.2455 2.425 2.98683C2.525 2.72817 2.7 2.54083 2.95 2.42483C3.2 2.30883 3.45434 2.2965 3.713 2.38783C3.97167 2.47917 4.159 2.64983 4.275 2.89983L6.2 7.04983H17.8L19.725 2.89983C19.8417 2.64983 20.0293 2.47483 20.288 2.37483C20.5467 2.27483 20.8007 2.2915 21.05 2.42483C21.3 2.5415 21.475 2.72917 21.575 2.98783C21.675 3.2465 21.6667 3.5005 21.55 3.74983L20 7.09983V17.9998C20 18.5498 19.8043 19.0208 19.413 19.4128C19.0217 19.8048 18.5507 20.0005 18 19.9998H6C5.45 19.9998 4.97934 19.8042 4.588 19.4128C4.19667 19.0215 4.00067 18.5505 4 17.9998ZM10 12.9998H14C14.2833 12.9998 14.521 12.9038 14.713 12.7118C14.905 12.5198 15.0007 12.2825 15 11.9998C14.9993 11.7172 14.9033 11.4798 14.712 11.2878C14.5207 11.0958 14.2833 10.9998 14 10.9998H10C9.71667 10.9998 9.47934 11.0958 9.288 11.2878C9.09667 11.4798 9.00067 11.7172 9 11.9998C8.99934 12.2825 9.09534 12.5202 9.288 12.7128C9.48067 12.9055 9.718 13.0012 10 12.9998ZM6 17.9998H18V9.04983H6V17.9998Z" fill="#0857A0"/>
</svg>
