<svg width="52" height="36" viewBox="0 0 52 36" fill="none" xmlns="http://www.w3.org/2000/svg">
<rect width="52" height="36" rx="10" fill="#BEBEBE" fill-opacity="0.1"/>
<g clip-path="url(#clip0_131_1110)">
<path d="M30.7247 11.2456C29.9083 10.4042 28.4324 10.0435 26.5443 10.0435H21.0647C20.8778 10.0434 20.6971 10.1037 20.5551 10.2134C20.413 10.3231 20.3189 10.475 20.2896 10.6418L18.008 23.7262C17.9626 23.9842 18.1836 24.2178 18.4728 24.2178H21.8558L22.7054 19.3452L22.679 19.4978C22.7396 19.1533 23.0653 18.8993 23.4511 18.8993H25.0587C28.2168 18.8993 30.6896 17.7395 31.412 14.3843C31.4334 14.285 31.452 14.1885 31.468 14.0941C31.3769 14.0505 31.3769 14.0505 31.468 14.0941C31.6831 12.854 31.4666 12.0099 30.7247 11.2456Z" fill="#27346A"/>
<path d="M23.9999 13.6474C24.0923 13.6075 24.1935 13.5869 24.2959 13.587H28.5919C29.1006 13.587 29.5751 13.6169 30.0087 13.68C30.13 13.6975 30.2507 13.7184 30.3706 13.7426C30.5406 13.7765 30.7086 13.818 30.874 13.867C31.0871 13.9314 31.2856 14.0063 31.4681 14.0941C31.6831 12.8535 31.4666 12.0099 30.7247 11.2456C29.9078 10.4042 28.4324 10.0435 26.5443 10.0435H21.0642C20.6783 10.0435 20.3501 10.2974 20.2896 10.6418L18.008 23.7257C17.9626 23.9841 18.1836 24.2174 18.4724 24.2174H21.8558L23.6185 14.1104C23.6358 14.0111 23.6796 13.917 23.746 13.8364C23.8125 13.7557 23.8996 13.6909 23.9999 13.6474Z" fill="#27346A"/>
<path d="M31.4119 14.3839C30.6896 17.7386 28.2168 18.8989 25.0587 18.8989H23.4506C23.0648 18.8989 22.739 19.153 22.6791 19.4974L21.6221 25.5559C21.5826 25.7817 21.7757 25.9864 22.0284 25.9864H24.8801C25.0435 25.9863 25.2015 25.9336 25.3257 25.8376C25.4499 25.7417 25.5321 25.6088 25.5576 25.4629L25.5854 25.3315L26.1229 22.2515L26.1575 22.0812C26.1831 21.9354 26.2653 21.8025 26.3895 21.7065C26.5137 21.6106 26.6716 21.5579 26.835 21.5578H27.2618C30.0243 21.5578 32.1874 20.543 32.8195 17.6081C33.0834 16.3816 32.9468 15.3576 32.2489 14.6384C32.0372 14.4205 31.7743 14.2406 31.468 14.0938C31.4514 14.1886 31.4334 14.2847 31.4119 14.3839Z" fill="#2790C3"/>
<path d="M30.712 13.8216C30.5994 13.7918 30.4857 13.7655 30.3711 13.7426C30.2511 13.7188 30.1304 13.698 30.0092 13.6804C29.5751 13.6169 29.101 13.5869 28.5918 13.5869H24.2963C24.1938 13.5868 24.0926 13.6076 24.0003 13.6478C23.8998 13.6911 23.8126 13.7559 23.7462 13.8366C23.6797 13.9173 23.636 14.0114 23.6188 14.1108L22.7058 19.3452L22.6794 19.4977C22.7395 19.1533 23.0653 18.8993 23.4511 18.8993H25.0592C28.2173 18.8993 30.69 17.7394 31.4124 14.3843C31.4339 14.285 31.4519 14.1889 31.4685 14.0941C31.2856 14.0069 31.0876 13.9313 30.8744 13.8674C30.8206 13.8513 30.7665 13.836 30.7121 13.8216" fill="#1F264F"/>
</g>
<defs>
<clipPath id="clip0_131_1110">
<rect width="15" height="16" fill="white" transform="translate(18 10)"/>
</clipPath>
</defs>
</svg>
