<svg width="24" height="25" viewBox="0 0 24 25" fill="none" xmlns="http://www.w3.org/2000/svg">
<path d="M16.4561 12.8865C17.6384 11.9589 18.5013 10.6869 18.9249 9.24737C19.3485 7.80788 19.3116 6.27251 18.8195 4.85488C18.3273 3.43725 17.4043 2.20785 16.1788 1.33772C14.9534 0.467591 13.4864 0 11.9821 0C10.4778 0 9.01085 0.467591 7.78541 1.33772C6.55997 2.20785 5.63695 3.43725 5.14477 4.85488C4.6526 6.27251 4.61573 7.80788 5.03931 9.24737C5.46289 10.6869 6.32585 11.9589 7.50813 12.8865C5.48227 13.6959 3.71464 15.0384 2.39367 16.7708C1.07271 18.5033 0.247932 20.5607 0.00727395 22.7239C-0.0101461 22.8818 0.00379671 23.0416 0.0483061 23.1941C0.0928155 23.3467 0.16702 23.489 0.266682 23.613C0.46796 23.8633 0.760716 24.0237 1.08055 24.0587C1.40038 24.0938 1.72109 24.0008 1.97212 23.8001C2.22315 23.5993 2.38394 23.3074 2.41913 22.9884C2.68393 20.6376 3.80797 18.4664 5.5765 16.8898C7.34503 15.3131 9.63406 14.4415 12.0062 14.4415C14.3784 14.4415 16.6674 15.3131 18.436 16.8898C20.2045 18.4664 21.3285 20.6376 21.5933 22.9884C21.6261 23.2839 21.7675 23.5568 21.9902 23.7545C22.2129 23.9522 22.5011 24.0605 22.7993 24.0587H22.9319C23.248 24.0225 23.537 23.8631 23.7357 23.6153C23.9345 23.3675 24.027 23.0514 23.9931 22.7359C23.7513 20.5666 22.9221 18.5039 21.5944 16.7688C20.2666 15.0337 18.4904 13.6916 16.4561 12.8865ZM11.9821 12.0327C11.0281 12.0327 10.0955 11.7506 9.30221 11.222C8.50896 10.6934 7.89069 9.94211 7.52559 9.06312C7.1605 8.18413 7.06497 7.21691 7.2511 6.28378C7.43722 5.35065 7.89663 4.49351 8.57124 3.82076C9.24585 3.14801 10.1054 2.68987 11.0411 2.50425C11.9768 2.31864 12.9466 2.41391 13.8281 2.77799C14.7095 3.14208 15.4628 3.75865 15.9929 4.54972C16.5229 5.34079 16.8058 6.27084 16.8058 7.22225C16.8058 8.49806 16.2976 9.72161 15.393 10.6237C14.4884 11.5259 13.2614 12.0327 11.9821 12.0327Z" fill="#20272C"/>
</svg>
