<svg width="20" height="20" viewBox="0 0 20 20" fill="none" xmlns="http://www.w3.org/2000/svg">
<path fill-rule="evenodd" clip-rule="evenodd" d="M9 1.62376C7.12653 1.62376 5.2947 2.36711 3.91982 3.74199C2.54161 5.12021 1.75 7.01038 1.75 9.00011C1.75 10.9898 2.54161 12.88 3.91982 14.2582C5.2947 15.6331 7.12653 16.3765 9 16.3765C10.8735 16.3765 12.7053 15.6331 14.0802 14.2582C15.4584 12.88 16.25 10.9898 16.25 9.00011C16.25 7.01038 15.4584 5.12021 14.0802 3.74199C12.7053 2.36711 10.8735 1.62376 9 1.62376ZM2.76647 2.94452C4.39217 1.31882 6.63 0.376465 9 0.376465C11.37 0.376465 13.6078 1.31882 15.2335 2.94452C16.8559 4.56688 17.75 6.74637 17.75 9.00011C17.75 11.0683 16.997 13.074 15.6193 14.644L19.5767 18.6014C19.8415 18.8662 19.798 19.2594 19.4795 19.4796C19.161 19.6999 18.6882 19.6637 18.4233 19.3988L14.6297 15.6052C13.0748 16.8918 11.0887 17.6238 9 17.6238C6.63 17.6238 4.39217 16.6814 2.76647 15.0557C1.1441 13.4333 0.25 11.2538 0.25 9.00011C0.25 6.74637 1.1441 4.56688 2.76647 2.94452Z" fill="#BEBEBE"/>
</svg>
