<svg width="24" height="24" viewBox="0 0 24 24" fill="none" xmlns="http://www.w3.org/2000/svg">
<g clip-path="url(#clip0_156_1241)">
<path d="M12.0547 0C11.0819 0 9.65541 0.40575 9.65541 0.762V2.87925C10.4513 2.71416 11.2607 2.62253 12.0734 2.6055C12.8866 2.62455 13.6967 2.71211 14.4952 2.86725V0.77325C14.4952 0.4065 13.0229 0 12.0547 0ZM12.0742 3.78525C10.0312 3.78525 7.00791 4.62525 7.00791 4.98V7.57425C8.54787 6.50388 10.2397 5.67061 12.0269 5.10225C12.0389 5.09025 14.8282 5.85225 17.2379 7.59825L17.2417 7.602V4.98C17.2417 4.60875 14.1164 3.78525 12.0734 3.78525H12.0742ZM12.1019 6.37125C11.3362 6.56625 10.5862 6.92625 9.88716 7.2585C8.36407 7.97364 6.95224 8.905 5.69541 10.0238C7.04766 11.403 7.85541 13.134 8.35266 14.7428L8.38791 14.856L8.42691 14.8958L8.37591 14.856C8.36391 14.8448 6.75516 13.1962 4.40316 13.1962C3.16116 13.1962 1.72416 13.653 0.212158 15.0285C0.356158 15.5483 0.532408 16.0365 0.739408 16.5285V16.5443L0.763408 16.5915C2.76741 21.1658 7.46616 24.1462 12.4582 23.9977C17.3534 23.85 21.8062 20.6857 23.5874 16.1385C23.6857 15.8925 23.7712 15.6345 23.8604 15.3885C22.1737 14.1345 19.5284 12.5715 18.5092 12.7717V12.768C17.7314 12.9158 16.8209 14.0333 15.6532 15.15C16.1219 13.4903 16.9619 11.6392 18.4852 10.0373C18.0888 9.67659 17.6742 9.3364 17.2432 9.018V9.006C15.7199 7.87275 13.9462 6.9 12.1034 6.369L12.1019 6.37125ZM12.0899 7.266L12.7027 10.3162L12.5549 12.9885L12.1132 16.9455V16.9657L12.0622 16.9575C12.0554 16.9575 12.0472 16.9493 12.0389 16.9493V16.9222L11.5469 12.9735L11.4262 10.3207L12.0899 7.266ZM12.9877 17.094L13.0117 17.0978C12.9628 17.1141 12.9145 17.1321 12.8669 17.1517C12.9059 17.1285 12.9487 17.1165 12.9877 17.094Z" fill="black"/>
</g>
<defs>
<clipPath id="clip0_156_1241">
<rect width="24" height="24" fill="white"/>
</clipPath>
</defs>
</svg>
