<svg width="24" height="24" viewBox="0 0 24 24" fill="none" xmlns="http://www.w3.org/2000/svg">
<path d="M15.933 12.71C16.8825 11.9387 17.5756 10.8809 17.9158 9.68394C18.256 8.48697 18.2264 7.21027 17.8311 6.03147C17.4358 4.85267 16.6945 3.83039 15.7103 3.10686C14.726 2.38332 13.5479 1.99451 12.3396 1.99451C11.1314 1.99451 9.95324 2.38332 8.96901 3.10686C7.98478 3.83039 7.24345 4.85267 6.84815 6.03147C6.45285 7.21027 6.42325 8.48697 6.76345 9.68394C7.10365 10.8809 7.79675 11.9387 8.74631 12.71C7.11922 13.383 5.69952 14.4994 4.63857 15.9399C3.57762 17.3805 2.91519 19.0913 2.72191 20.89C2.70792 21.0213 2.71911 21.1542 2.75486 21.2811C2.79061 21.4079 2.85021 21.5263 2.93025 21.6293C3.09191 21.8375 3.32704 21.9708 3.58392 22C3.8408 22.0292 4.09838 21.9518 4.3 21.7849C4.50161 21.618 4.63076 21.3752 4.65901 21.11C4.87169 19.1552 5.77448 17.3498 7.1949 16.0388C8.61531 14.7278 10.4538 14.003 12.359 14.003C14.2643 14.003 16.1027 14.7278 17.5231 16.0388C18.9435 17.3498 19.8463 19.1552 20.059 21.11C20.0853 21.3557 20.1989 21.5827 20.3778 21.747C20.5566 21.9114 20.7881 22.0015 21.0276 22H21.1341C21.388 21.9698 21.6201 21.8373 21.7797 21.6313C21.9394 21.4252 22.0137 21.1624 21.9864 20.9C21.7922 19.0962 21.1262 17.381 20.0598 15.9382C18.9934 14.4954 17.5668 13.3795 15.933 12.71ZM12.3396 12C11.5734 12 10.8244 11.7654 10.1872 11.3259C9.55013 10.8864 9.05357 10.2616 8.76034 9.53074C8.46711 8.79983 8.39038 7.99557 8.53987 7.21964C8.68936 6.44372 9.05834 5.73099 9.60016 5.17158C10.142 4.61217 10.8323 4.2312 11.5838 4.07686C12.3353 3.92252 13.1143 4.00173 13.8222 4.30448C14.5302 4.60724 15.1352 5.11993 15.5609 5.77772C15.9866 6.43552 16.2139 7.20888 16.2139 8C16.2139 9.06087 15.8057 10.0783 15.0791 10.8284C14.3526 11.5786 13.3671 12 12.3396 12Z" fill="#BEBEBE"/>
</svg>
