<svg width="52" height="36" viewBox="0 0 52 36" fill="none" xmlns="http://www.w3.org/2000/svg">
<rect width="52" height="36" rx="10" fill="#BEBEBE" fill-opacity="0.1"/>
<g clip-path="url(#clip0_131_1113)">
<path d="M26.5496 15.8211C26.5314 17.486 27.8325 18.4151 28.8126 18.9675C29.8196 19.5343 30.1579 19.8977 30.1539 20.4046C30.1464 21.1803 29.3506 21.5227 28.606 21.536C27.3069 21.5592 26.5515 21.1303 25.951 20.8058L25.483 23.3387C26.0855 23.6598 27.2011 23.9399 28.358 23.9521C31.0736 23.9521 32.8503 22.4017 32.8599 19.9978C32.8705 16.9469 29.2114 16.778 29.2364 15.4144C29.245 15.0009 29.5861 14.5596 30.3336 14.4474C30.7036 14.3908 31.725 14.3474 32.883 14.9641L33.3375 12.5135C32.7148 12.2513 31.9144 12.0001 30.9179 12.0001C28.3619 12.0001 26.5641 13.5717 26.5496 15.8211ZM37.7048 12.2112C37.2089 12.2112 36.791 12.5458 36.6045 13.0592L32.7254 23.7721H35.439L35.979 22.046H39.295L39.6082 23.7721H42L39.9129 12.2112H37.7048ZM38.0844 15.3343L38.8675 19.6755H36.7227L38.0844 15.3343ZM23.2595 12.2114L21.1205 23.772H23.7064L25.8444 12.2111L23.2595 12.2114ZM19.4341 12.2114L16.7426 20.0801L15.6539 13.3894C15.5261 12.6425 15.0216 12.2112 14.4614 12.2112H10.0616L10 12.5469C10.9032 12.7736 11.9295 13.1393 12.5512 13.5305C12.9318 13.7695 13.0403 13.9784 13.1653 14.5463L15.2274 23.7721H17.96L22.1495 12.2112L19.4341 12.2114Z" fill="url(#paint0_linear_131_1113)"/>
</g>
<defs>
<linearGradient id="paint0_linear_131_1113" x1="1481.17" y1="47.9279" x2="1521.17" y2="-1179.23" gradientUnits="userSpaceOnUse">
<stop stop-color="#222357"/>
<stop offset="1" stop-color="#254AA5"/>
</linearGradient>
<clipPath id="clip0_131_1113">
<rect width="32" height="12" fill="white" transform="translate(10 12)"/>
</clipPath>
</defs>
</svg>
