<svg width="24" height="24" viewBox="0 0 24 24" fill="none" xmlns="http://www.w3.org/2000/svg">
<path fill-rule="evenodd" clip-rule="evenodd" d="M18.494 3.80103C20.589 5.02203 22.063 7.50103 21.998 10.393C21.917 14.003 19.108 17.187 14.319 20.031C13.609 20.453 12.861 21 12 21C11.155 21 10.375 20.443 9.68001 20.03C4.89301 17.187 2.08301 14.002 2.00201 10.393C1.93701 7.50103 3.41101 5.02303 5.50601 3.80103C7.46601 2.66003 9.92801 2.65303 12 4.33803C14.072 2.65303 16.534 2.65903 18.494 3.80103ZM17.487 5.53003C16.093 4.71803 14.351 4.74703 12.843 6.27303C12.7324 6.384 12.6011 6.47204 12.4564 6.53212C12.3117 6.5922 12.1566 6.62312 12 6.62312C11.8434 6.62312 11.6883 6.5922 11.5436 6.53212C11.3989 6.47204 11.2676 6.384 11.157 6.27303C9.64901 4.74703 7.90701 4.71803 6.51301 5.53003C5.06901 6.37203 3.95301 8.15803 4.00201 10.35C4.05801 12.861 6.04201 15.544 10.702 18.312C11.11 18.555 11.536 18.866 12 18.995C12.464 18.866 12.89 18.555 13.298 18.312C17.958 15.544 19.942 12.862 19.998 10.349C20.048 8.15903 18.931 6.37203 17.487 5.53003Z" fill="black"/>
</svg>
